M48
; DRILL file {KiCad (5.1.6)-1} date 10/11/20 20:34:47
; FORMAT={-:-/ absolute / inch / decimal}
; #@! TF.CreationDate,2020-10-11T20:34:47-04:00
; #@! TF.GenerationSoftware,Kicad,Pcbnew,(5.1.6)-1
; #@! TF.FileFunction,Plated,1,2,PTH
FMAT,2
INCH
T1C0.0157
T2C0.0315
T3C0.0394
%
G90
G05
T1
X3.68Y-0.91
X3.91Y-3.78
X4.68Y-0.995
X4.68Y-5.2
X4.89Y-2.96
X5.07Y-1.1
X5.07Y-6.39
X5.1Y-0.83
X5.1Y-1.43
X5.24Y-0.88
X5.95Y-4.43
X6.11Y-5.26
X6.21Y-4.68
X6.23Y-0.9
X6.31Y-0.87
X6.45Y-0.97
X6.45Y-1.43
X6.46Y-3.94
X6.61Y-3.69
T2
X4.1Y-0.875
X4.1Y-0.975
X4.1Y-1.075
X4.1Y-1.175
X4.1Y-1.275
X4.1Y-1.375
X4.1Y-1.475
X4.1Y-1.575
X4.4Y-0.875
X4.4Y-0.975
X4.4Y-1.075
X4.4Y-1.175
X4.4Y-1.275
X4.4Y-1.375
X4.4Y-1.475
X4.4Y-1.575
X5.475Y-1.85
X5.475Y-1.95
X5.475Y-2.05
X5.475Y-2.15
X5.475Y-2.25
X5.475Y-2.35
X5.475Y-2.45
X5.475Y-2.55
X5.475Y-2.65
X5.775Y-1.85
X5.775Y-1.95
X5.775Y-2.05
X5.775Y-2.15
X5.775Y-2.25
X5.775Y-2.35
X5.775Y-2.45
X5.775Y-2.55
X5.775Y-2.65
X4.025Y-7.025
X4.525Y-7.025
X6.075Y-2.525
X6.375Y-2.525
X6.075Y-1.775
X6.375Y-1.775
X4.4Y-2.675
X4.7Y-2.675
X5.4Y-7.025
X5.9Y-7.025
X3.85Y-1.85
X3.85Y-1.95
X3.85Y-2.05
X3.85Y-2.15
X3.85Y-2.25
X3.85Y-2.35
X3.85Y-2.45
X3.85Y-2.55
X3.85Y-2.65
X4.15Y-1.85
X4.15Y-1.95
X4.15Y-2.05
X4.15Y-2.15
X4.15Y-2.25
X4.15Y-2.35
X4.15Y-2.45
X4.15Y-2.55
X4.15Y-2.65
X4.0Y-6.625
X4.5Y-6.625
X4.4Y-2.3
X4.7Y-2.3
X6.075Y-2.025
X6.375Y-2.025
X5.4Y-5.025
X5.9Y-5.025
X6.075Y-1.9
X6.375Y-1.9
X3.975Y-5.425
X4.475Y-5.425
X4.4Y-2.05
X4.7Y-2.05
X4.125Y-3.3
X4.125Y-3.6
X4.225Y-3.3
X4.225Y-3.6
X4.325Y-3.3
X4.325Y-3.6
X4.425Y-3.3
X4.425Y-3.6
X4.525Y-3.3
X4.525Y-3.6
X4.625Y-3.3
X4.625Y-3.6
X4.725Y-3.3
X4.725Y-3.6
X4.825Y-3.3
X4.825Y-3.6
X5.4Y-4.225
X5.9Y-4.225
X6.075Y-2.275
X6.375Y-2.275
X3.975Y-5.025
X4.475Y-5.025
X4.4Y-1.8
X4.7Y-1.8
X5.4Y-4.625
X5.9Y-4.625
X4.0Y-6.225
X4.5Y-6.225
X4.4Y-2.175
X4.7Y-2.175
X6.075Y-2.4
X6.375Y-2.4
X4.0Y-4.225
X4.5Y-4.225
X5.4Y-5.825
X5.9Y-5.825
X5.625Y-3.25
X5.625Y-3.55
X5.725Y-3.25
X5.725Y-3.55
X5.825Y-3.25
X5.825Y-3.55
X5.925Y-3.25
X5.925Y-3.55
X6.025Y-3.25
X6.025Y-3.55
X6.125Y-3.25
X6.125Y-3.55
X6.225Y-3.25
X6.225Y-3.55
X6.325Y-3.25
X6.325Y-3.55
X5.8Y-0.875
X5.8Y-0.975
X5.8Y-1.075
X5.8Y-1.175
X5.8Y-1.275
X5.8Y-1.375
X5.8Y-1.475
X5.8Y-1.575
X6.1Y-0.875
X6.1Y-0.975
X6.1Y-1.075
X6.1Y-1.175
X6.1Y-1.275
X6.1Y-1.375
X6.1Y-1.475
X6.1Y-1.575
X6.075Y-2.65
X6.375Y-2.65
X6.075Y-2.15
X6.375Y-2.15
X4.4Y-2.55
X4.7Y-2.55
X5.4Y-5.425
X5.9Y-5.425
X5.375Y-6.225
X5.875Y-6.225
X5.4Y-6.625
X5.9Y-6.625
X4.4Y-2.425
X4.7Y-2.425
X3.975Y-5.825
X4.475Y-5.825
X4.0Y-4.625
X4.5Y-4.625
X4.4Y-1.925
X4.7Y-1.925
T3
X5.25Y-3.325
X5.25Y-3.425
X5.25Y-3.525
X6.59Y-6.09
X6.59Y-6.19
X6.12Y-3.04
X5.525Y-4.025
X5.8203Y-4.025
X5.5Y-4.425
X5.7953Y-4.425
X6.7Y-1.875
X6.7Y-1.975
X6.7Y-2.075
X6.7Y-2.175
X6.7Y-2.275
X6.7Y-2.375
X6.7Y-2.475
X6.7Y-2.575
X4.1Y-6.425
X4.3953Y-6.425
X5.5Y-6.825
X5.7953Y-6.825
X4.1Y-4.025
X4.3953Y-4.025
X4.075Y-5.625
X4.3703Y-5.625
X3.6Y-3.425
X3.6Y-3.525
X3.6Y-3.625
X4.1Y-4.825
X4.3953Y-4.825
X4.62Y-3.06
X4.075Y-5.225
X4.3703Y-5.225
X4.1Y-6.825
X4.3953Y-6.825
X5.5Y-4.825
X5.7953Y-4.825
X5.5Y-6.425
X5.7953Y-6.425
X4.1Y-6.025
X4.3953Y-6.025
X5.5Y-5.625
X5.7953Y-5.625
X4.1Y-4.425
X4.3953Y-4.425
X5.0Y-1.875
X5.0Y-1.975
X5.0Y-2.075
X5.0Y-2.175
X5.0Y-2.275
X5.0Y-2.375
X5.0Y-2.475
X5.0Y-2.575
X4.9Y-5.1
X4.9Y-5.2
X4.9Y-5.3
X4.9Y-5.4
X4.9Y-5.5
X4.9Y-5.6
X4.9Y-5.7
X4.9Y-5.8
X3.575Y-1.175
X3.575Y-1.275
X3.575Y-1.375
X6.275Y-5.0
X6.275Y-5.1
X6.275Y-5.2
X6.275Y-5.3
X6.275Y-5.4
X6.275Y-5.5
X6.275Y-5.6
X6.275Y-5.7
X6.77Y-1.12
X6.77Y-1.22
X6.77Y-1.32
X5.5Y-6.025
X5.7953Y-6.025
X3.63Y-5.58
X3.63Y-5.68
X5.5Y-5.225
X5.7953Y-5.225
T0
M30
